<svg xmlns="http://www.w3.org/2000/svg" width="15" height="11" viewBox="0 0 15 11" fill="none"><path id="Vector" d="M0.466762 0.901607C0.466762 0.776743 0.512359 0.666014 0.598752 0.571776C0.685144 0.477539 0.809935 0.43042 0.970721 0.43042L3.15215 0.43042C3.39213 0.43042 3.57451 0.491674 3.7041 0.618895C3.83369 0.746115 3.94408 0.885116 4.04008 1.04296L7.73338 6.48047L11.4267 1.04296C11.5227 0.885116 11.6379 0.74376 11.7747 0.618895C11.909 0.49403 12.0914 0.43042 12.3122 0.43042L14.52 0.43042C14.664 0.43042 14.7792 0.477539 14.868 0.571776C14.9568 0.666014 15 0.776743 15 0.901607C15 0.979353 14.9784 1.05946 14.94 1.1372C14.8992 1.21495 14.8632 1.28562 14.832 1.34924L9.12287 9.56439C8.96208 9.79998 8.8061 9.97196 8.65731 10.0827C8.50612 10.1911 8.30694 10.2476 8.06695 10.2476H7.42141C7.18143 10.2476 6.98464 10.1911 6.83345 10.0827C6.68227 9.97196 6.52628 9.79998 6.36549 9.56439L0.658747 1.34924C0.61075 1.28798 0.567554 1.21495 0.529157 1.1372C0.48836 1.05946 0.469162 0.979353 0.469162 0.901607H0.466762Z" fill="#5500EB"></path></svg>